<svg xmlns="http://www.w3.org/2000/svg" width="130" height="40" viewBox="0 0 130 40"><g fill="none" fill-rule="evenodd"><path d="M0 0h130v40H0z"/><path fill="#FFF" d="M74.756 10v2.343h1.59v2.147a8.15 8.15 0 0 0-2.48-.368c-2.673.065-4.264 1.431-4.264 4.577v2.104c0 2.711.87 4.815 4.093 4.815.806 0 2.016-.26 3.076-.824l.191.63h4.009V23.08h-1.464V10h-4.751zM72.72 21.128v-2.516c0-1.606.551-1.974 1.866-1.974.721 0 1.252.087 1.76.217v6.008c-.572.13-1.314.24-1.76.24-1.484 0-1.866-.543-1.866-1.975zM44 10v2.343h1.59V25.25a32.82 32.82 0 0 0 4.922.368c4.157 0 4.984-2.104 4.984-4.815v-2.104c0-3.146-1.59-4.512-4.263-4.577a8.15 8.15 0 0 0-2.482.368V10H44zm4.751 13.015v-6.16a6.736 6.736 0 0 1 1.76-.217c1.316 0 1.868.368 1.868 1.974v2.516c0 1.432-.382 1.974-1.867 1.974-.446 0-1.146 0-1.76-.087zm50.504-7.744l-.276-.954h-4.2v2.343h1.591v6.42h-1.42v2.343h5.981V23.08h-1.4v-5.683c1.103-.347 2.991-.412 3.755-.434v-2.841c-1.379 0-2.715.672-4.03 1.15zm-17.011 3.666v2.104c0 3.146 1.59 4.512 4.263 4.577.997 0 1.782-.173 2.397-.347-.021.781-.234 1.519-1.04 1.8-1.102.413-3.181.391-5.111.391V30h.912c1.251 0 3.203 0 4.9-.39 3.563-.933 3.584-3.471 3.584-5.64v-7.31h1.591v-2.343h-4.136l-.191.629c-1.06-.564-2.27-.824-3.076-.824-3.224 0-4.093 2.104-4.093 4.815zm3.117 2.191v-2.516c0-1.432.382-1.974 1.867-1.974.446 0 1.188.108 1.76.238v6.009a6.742 6.742 0 0 1-1.76.217c-1.315 0-1.867-.369-1.867-1.974zm-25.283-6.746c-2.927.716-3.012 2.993-3.012 4.317v2.256c0 2.71.87 4.663 4.094 4.663.806 0 1.93-.26 2.99-.824l.191.63h3.946V23.08h-1.4v-8.243c-1.718-.499-3.16-.715-4.752-.715-.742 0-1.315.086-2.057.26zm.148 6.724v-2.32c0-1.432.234-2.148 1.867-2.148.424 0 1.06.043 1.633.13v6.009c-.53.173-1.23.303-1.633.303-1.506 0-1.845-.542-1.867-1.974z"/><path d="M0 40h40V0H0z"/><path fill="#B5445B" d="M20.05 2.084L20 2.055 4.535 11l-.05.029v5.255l.125-.033 1.108-.29c.375-.099 1.28-.641 2.243-1.219 2.139-1.283 5.069-3.04 7.548-3.38a22.28 22.28 0 0 1 2.256-.19h.02l.018-.009c.174-.079.46-.257.852-.528.187-.13.369-.26.544-.386.888-.634 1.59-1.134 2.194-1.134.076 0 .15.008.222.023.675.15 1.957 1.098 2.568 1.783.363.407 1.347 1.242 2.404 1.83a.283.283 0 0 1 .048.028l.021.012c3.024 1.252 5.947 3.245 8.69 5.922l.17.166v-7.85L20.05 2.084zm2.49 31.287a23.045 23.045 0 0 0-7.807-8.152c-.205-.113-2.127-1.12-6.415-1.767l-.064-.01c-1.67-.249-2.795-.456-3.644-.674l-.125-.032v6.236l15.465 8.944.05.029 3.72-2.151-.047-.111a21.838 21.838 0 0 0-1.134-2.312z"/><path fill="#FFF" d="M25.524 17.435l.028.025c1.282 1.126 3.758 1.762 5.12 2.04 1.65.338 3.474.518 3.685.363a.118.118 0 0 0 .04-.145c-.145-.328-2.477-2.427-6.232-5.104-1.323-.942-2.984-1.681-4.94-2.197a31.172 31.172 0 0 0-1.894-.401 41.11 41.11 0 0 0-2.474-.32 23.495 23.495 0 0 0-1.439-.068h-.012a1.557 1.557 0 0 1-.286.01h-.013c-.515.035-1.033.087-1.54.156-2.39.327-5.275 2.058-7.383 3.322-1.072.644-1.92 1.152-2.356 1.266l-1.269.333-2.072.547.129.124c.182.174.631.617.868.982a.88.88 0 0 1 .14.3c.013.068.01.275-.153.888a30.078 30.078 0 0 1-.623 1.978l-.026.077.07.042c.183.11.392.212.638.313l.038-.092-.026.097.022.007a25.247 25.247 0 0 0 .258.047c.115.02.41.057.753.092.567.059 2.532.247 3.977.194.328-.012.643-.027.946-.042 1.338-.065 2.395-.116 3.16.175.047.018.07.07.053.117a.092.092 0 0 1-.117.053c-.73-.278-1.77-.227-3.087-.163l-.03.001c-.295.015-.6.03-.918.04-.683.025-1.62-.012-2.786-.112l-.029.197c.676.135 1.494.272 2.574.433.197.03.387.06.583.092 1.202.095 3.68.273 6.772.387 4.505.166 9.4 2.206 12.223 3.902 1.674 1.006 3.62 2.178 5.023 3.023l.05.03.969-.56.125-.072-.053-.087c-3.22-5.303-7.278-8.077-9.007-8.282l-.197-.024c-1.51-.179-2.51-.298-2.581-.514-.061-.183.143-.422.227-.5l-.12-.158c-.24.147-.534.126-.711.093.139-.2.163-.463.164-.477l.017-.213-.174.122c-.2.14-.705.251-1.02.306a3.06 3.06 0 0 0 .128-.695l.016-.279-.19.205c-.326.352-1.99.895-4.686 1.53-1.902.449-5.714.102-7.15-.029-.181-.016-.324-.03-.417-.037-.724-.055-.818.03-.977.487a6.07 6.07 0 0 1-.078.214c-.05.128-.106.143-.125.148-.16.043-.474-.215-.75-.441a8.02 8.02 0 0 0-.372-.293c-.375-.271-.798-.782-.843-1.26A.773.773 0 0 1 5.385 19c.313-.33 1.52-1.028 3.003-1.738 1.025-.49 3.074-1.415 5.283-2.089 3.631-1.106 5.301-.86 6.41-.697.33.049.73.115 1.187.238l.032.009.03-.012c.103-.04.19-.07.278-.095a5.594 5.594 0 0 1 1.483-.23c1.189 0 1.658.544 1.843 1 .18.443.494 1.293.585 2.011l.005.038zm-13.388.896l-.228.205.305-.031a1.05 1.05 0 0 0 .404-.116 2.88 2.88 0 0 0 .41-.25c.048-.034.095-.067.142-.097.089-.058.16-.094.227-.119a.615.615 0 0 1 .113-.028l.29-.043-.257-.143a8.757 8.757 0 0 0-.735-.368l-.059-.025-.042-.018a1.784 1.784 0 0 0-.125-.049.833.833 0 0 0-.574-.013c-.094.032-.19.082-.282.149l-.31.223.38-.043.02-.002a.366.366 0 0 1 .168.02l-.24.174.393-.046a.144.144 0 0 1 .037 0 .442.442 0 0 1-.037.62zm11.923-1.165a.921.921 0 0 1-.31.206l-.136.05.094.11c.024.028.6.694 1.133.827.046.012.09.018.132.018.104 0 .291-.042.363-.319a.918.918 0 0 0 .019-.092c.008-.06.013-.13.012-.204a3.352 3.352 0 0 0-.073-.613 8.312 8.312 0 0 0-.163-.65 11.3 11.3 0 0 0-.364-1.045 1.262 1.262 0 0 0-.46-.575 1.527 1.527 0 0 0-.21-.12c-.337-.156-.779-.217-1.3-.179-.276.02-.572.069-.88.143a6.457 6.457 0 0 0-.258.068 2.913 2.913 0 0 0-1.663 1.238.678.678 0 0 0-.065.106.25.25 0 0 0-.025.126.174.174 0 0 0 .044.102c.085.094.259.1.583.022.341-.082.714-.26.966-.394.443-.237.85-.515 1.058-.72.005.024.009.051.013.08l.004.026c.027.215.017.41-.03.563l-.028.093.092.031s.027.01.072.018a.88.88 0 0 0 .173.018.703.703 0 0 0 .48-.181.396.396 0 0 1-.022.202l-.043.1.103.034.017.005a.65.65 0 0 0 .373-.028l-.008.018a.993.993 0 0 1-.092.158.722.722 0 0 1-.185.178l-.13.082.128.085c.005.003.113.075.26.147.167.083.314.131.44.146a1.607 1.607 0 0 1-.114.12zm-5.27-5.802c.813 0 2.46-.32 2.712-.93l.014-.033.028.022a1.059 1.059 0 0 1 .233.269c.018.03.033.06.044.089.027.066.038.13.035.19l-.008.152.143-.053c.033-.013.075-.033.132-.064l.12-.07.014-.008c.066-.039.134-.079.196-.11l.034-.017.005.039c.001.011.042.286.209.377a.202.202 0 0 0 .095.027c.04 0 .113-.018.164-.135a.73.73 0 0 0 .05-.251l.004-.077a1.662 1.662 0 0 1 .033-.233l.016-.064-.052-.04a9.816 9.816 0 0 0-.203-.155c-.254-.188-.89-.637-1.287-.725-.269-.06-.643.077-1.241.466-.118.077-.249.166-.401.272-.132.092-.268.19-.408.289l-.019.013-.185.132-.163.115-.2.142-.157.11-.35.25.296.009.098.002z"/><path fill="#282C4C" d="M35.415 18.64c-2.749-2.684-5.681-4.684-8.72-5.942a.375.375 0 0 0-.066-.04c-1.04-.577-2.012-1.402-2.371-1.805-.621-.695-1.93-1.66-2.622-1.813a1.109 1.109 0 0 0-.243-.026c-.637 0-1.35.508-2.252 1.153a72.75 72.75 0 0 1-.544.385c-.469.326-.71.463-.835.519-.115.004-.23.008-.346.014a22.4 22.4 0 0 0-1.92.177c-2.5.342-5.44 2.106-7.587 3.394-.954.571-1.854 1.112-2.217 1.207l-1.107.29v-5.068L20 2.171l15.415 8.914v7.556zm-16.72-7.378l.055-.039.054-.038.156-.11c.095-.066.183-.13.275-.195l.274-.194c.146-.105.289-.206.426-.302.138-.096.27-.187.398-.27.425-.276.79-.463 1.06-.463.038 0 .073.003.106.01.286.064.776.358 1.249.709.067.05.135.1.2.153a1.827 1.827 0 0 0-.036.252c0 .028-.002.055-.003.078a.62.62 0 0 1-.042.216c-.021.05-.048.075-.072.075a.107.107 0 0 1-.048-.015c-.1-.055-.148-.243-.157-.303l-.024-.177-.159.08c-.066.033-.137.075-.207.116l-.126.073a1.003 1.003 0 0 1-.119.058.541.541 0 0 0-.042-.232.761.761 0 0 0-.05-.103 1.076 1.076 0 0 0-.258-.296l-.11-.088-.022-.018-.064.157c-.216.521-1.72.868-2.62.868l-.093-.002zm-6.354 6.53a.541.541 0 0 0-.117-.173.34.34 0 0 0-.076-.01c-.012 0-.024.003-.036.004a.743.743 0 0 1 .06-.039.534.534 0 0 0-.331-.114c-.02 0-.038.004-.058.006a.98.98 0 0 1 .256-.136.704.704 0 0 1 .228-.038c.103 0 .197.023.28.052.043.014.082.03.12.046l.104.044c.258.104.723.362.723.362a.72.72 0 0 0-.131.033c-.086.03-.167.076-.249.13-.163.105-.33.24-.54.34a.983.983 0 0 1-.372.107.536.536 0 0 0 .138-.614zm11.909-.841c-.15 0-.33-.07-.473-.14a2.432 2.432 0 0 1-.248-.141.727.727 0 0 0 .212-.203.843.843 0 0 0 .101-.175c.027-.057.047-.112.062-.16l.013-.045c.008-.028.013-.053.017-.072l.008-.046a.51.51 0 0 1-.531.194l-.01-.003a.427.427 0 0 0 .027-.083.52.52 0 0 0-.006-.223c-.02-.083-.052-.14-.052-.14a.593.593 0 0 1-.185.194.61.61 0 0 1-.333.092.777.777 0 0 1-.153-.016.411.411 0 0 1-.06-.015 1.48 1.48 0 0 0 .033-.605l-.004-.028a2.288 2.288 0 0 0-.046-.234l-.01-.041a.831.831 0 0 0-.005-.015c-.004.011-.013.025-.022.039-.115.18-.6.533-1.134.818-.32.17-.658.316-.942.385-.15.036-.257.05-.334.05-.082 0-.129-.017-.152-.042a.073.073 0 0 1-.019-.044.156.156 0 0 1 .017-.076.38.38 0 0 1 .053-.086.391.391 0 0 1 .021-.025s.03-.054.092-.14a2.412 2.412 0 0 1 .196-.236 2.827 2.827 0 0 1 1.302-.802 5.435 5.435 0 0 1 1.12-.207c.095-.007.191-.011.286-.011.352 0 .685.052.962.181.069.033.134.07.196.112a1.152 1.152 0 0 1 .424.53 11.415 11.415 0 0 1 .361 1.036 8.447 8.447 0 0 1 .161.64c.044.22.07.423.071.595a1.286 1.286 0 0 1-.027.27c-.04.153-.124.244-.268.244a.441.441 0 0 1-.107-.015c-.509-.127-1.08-.796-1.08-.796.13-.048.248-.136.344-.227.064-.061.118-.124.16-.177.063-.079.1-.137.1-.137a.337.337 0 0 1-.138.026zm1.368.434c-.091-.727-.409-1.587-.591-2.037-.196-.484-.692-1.061-1.936-1.061-.576 0-1.14.126-1.51.232a3.44 3.44 0 0 0-.287.099 9.957 9.957 0 0 0-1.199-.24c-1.08-.16-2.797-.415-6.453.7-3.656 1.114-7.693 3.184-8.33 3.853-.635.669.064 1.624.637 2.038.572.414 1.176 1.114 1.398.541.223-.573.127-.7.954-.637.826.064 5.436.574 7.598.064s4.324-1.114 4.737-1.56c0 0-.032.541-.19.828 0 0 .921-.128 1.239-.35 0 0-.032.382-.254.54 0 0 .54.192.953-.063 0 0-.35.318-.254.605.095.286.986.382 2.861.605 1.7.202 5.752 2.994 8.934 8.235l-.493.284.456-.263-.917.53c-1.404-.845-3.35-2.017-5.023-3.022-3.02-1.815-7.948-3.758-12.272-3.917a164.12 164.12 0 0 1-6.767-.387c-.188-.03-.379-.061-.576-.09a55.143 55.143 0 0 1-2.57-.433c.919.08 1.985.143 2.8.114.328-.012.645-.028.949-.042 1.305-.064 2.336-.114 3.046.157a.191.191 0 0 0 .136-.357c-.785-.299-1.85-.247-3.2-.182-.303.015-.618.03-.946.042-1.243.045-2.97-.09-3.963-.193a13.924 13.924 0 0 1-.843-.109l-.16-.029-.014-.006a4.61 4.61 0 0 1-.625-.307c.11-.32.428-1.246.625-1.985.11-.419.183-.778.155-.932a1.003 1.003 0 0 0-.155-.336c-.24-.369-.681-.808-.883-1 .224-.06.524-.14.883-.234l1.017-.268 1.268-.333c1.32-.346 6.132-4.094 9.728-4.586.47-.064.983-.118 1.532-.155a1.4 1.4 0 0 0 .304-.01c.316.004.812.02 1.432.068.98.092 1.974.24 2.466.319.42.067 1.12.22 1.888.4 1.665.438 3.417 1.12 4.904 2.18 3.86 2.753 6.072 4.777 6.2 5.064.121.276-6.368-.335-8.69-2.374zM20 37.829L4.585 28.915v-6.05c.92.236 2.098.444 3.654.676l.032.005.031.005c4.31.65 6.245 1.68 6.383 1.755a22.938 22.938 0 0 1 7.767 8.114c.425.753.805 1.527 1.129 2.301l.012.03L20 37.83zm15.924-27.626L20.509 1.288a1.015 1.015 0 0 0-1.018 0L4.076 10.203a1.02 1.02 0 0 0-.508.882v5.336l-1.497.396c-.87.227-1.399.606-1.62 1.16-.327.824.154 1.775.666 2.597.595.953 1.222 1.534 2.45 1.983v6.358c0 .364.194.7.51.882l15.414 8.915a1.015 1.015 0 0 0 1.018 0l15.415-8.915a1.02 1.02 0 0 0 .508-.882v-17.83c0-.364-.193-.7-.508-.882z"/></g></svg>